<svg xmlns="http://www.w3.org/2000/svg" version="1.1" xmlns:xlink="http://www.w3.org/1999/xlink" xmlns:svgjs="http://svgjs.dev/svgjs" width="2000" height="1999" viewBox="0 0 2000 1999"><g transform="matrix(1,0,0,1,-0.4314868804665366,-0.4312711370263287)"><svg viewBox="0 0 343 343" data-background-color="#ffffff" preserveAspectRatio="xMidYMid meet" height="1999" width="2000" xmlns="http://www.w3.org/2000/svg" xmlns:xlink="http://www.w3.org/1999/xlink"><g id="tight-bounds" transform="matrix(1,0,0,1,0.07400000000001228,0.07400000000001228)"><svg viewBox="0 0 342.8515585177538 342.8515585177538" height="342.8515585177538" width="342.8515585177538"><g><svg></svg></g><g><svg viewBox="0 0 342.8515585177538 342.8515585177538" height="342.8515585177538" width="342.8515585177538"><g><path d="M0 171.426c0-94.676 76.75-171.426 171.426-171.426 94.676 0 171.426 76.75 171.426 171.426 0 94.676-76.75 171.426-171.426 171.426-94.676 0-171.426-76.75-171.426-171.426zM171.426 339.156c92.635 0 167.73-75.095 167.73-167.73 0-92.635-75.095-167.73-167.73-167.73-92.635 0-167.73 75.095-167.73 167.73 0 92.635 75.095 167.73 167.73 167.73z" data-fill-palette-color="tertiary" fill="#4790fc" stroke="transparent"></path><ellipse rx="164.56874808852183" ry="164.56874808852183" cx="171.4257792588769" cy="171.4257792588769" fill="#4790fc" stroke="transparent" stroke-width="0" fill-opacity="1" data-fill-palette-color="tertiary"></ellipse></g><g transform="matrix(1,0,0,1,64.84655864529836,103.62105468146953)"><svg viewBox="0 0 213.15844122715708 135.60944915481474" height="135.60944915481474" width="213.15844122715708"><g><svg viewBox="0 0 213.15844122715708 135.60944915481474" height="135.60944915481474" width="213.15844122715708"><g><svg viewBox="0 0 213.15844122715708 135.60944915481474" height="135.60944915481474" width="213.15844122715708"><g transform="matrix(1,0,0,1,0,94.62838702302487)"><svg viewBox="0 0 213.15844122715708 40.98106213178988" height="40.98106213178988" width="213.15844122715708"><g><svg viewBox="0 0 213.15844122715708 40.98106213178988" height="40.98106213178988" width="213.15844122715708"><g><svg viewBox="0 0 213.15844122715708 40.98106213178988" height="40.98106213178988" width="213.15844122715708"><g transform="matrix(1,0,0,1,0,0)"><svg width="213.15844122715708" viewBox="3.0999999046325684 -35.5 187.239990234375 36" height="40.98106213178988" data-palette-color="#ffffff"><path d="M11.95 0L4.4 0Q3.9 0 3.5-0.38 3.1-0.75 3.1-1.3L3.1-1.3 3.1-33.7Q3.1-34.25 3.5-34.63 3.9-35 4.4-35L4.4-35 11.05-35Q11.95-35 12.35-34.6 12.75-34.2 12.9-33.95L12.9-33.95 23.2-17.4 23.2-33.7Q23.2-34.25 23.6-34.63 24-35 24.55-35L24.55-35 32.05-35Q32.6-35 32.98-34.63 33.35-34.25 33.35-33.7L33.35-33.7 33.35-1.3Q33.35-0.75 32.98-0.38 32.6 0 32.05 0L32.05 0 25.45 0Q24.55 0 24.13-0.43 23.7-0.85 23.55-1.05L23.55-1.05 13.25-16.7 13.25-1.3Q13.25-0.75 12.88-0.38 12.5 0 11.95 0L11.95 0ZM52.15 0.5L52.15 0.5Q47.75 0.5 44.72-0.8 41.7-2.1 40.1-4.63 38.5-7.15 38.3-10.7L38.3-10.7Q38.25-11.75 38.25-13 38.25-14.25 38.3-15.3L38.3-15.3Q38.5-18.9 40.2-21.4 41.9-23.9 44.92-25.2 47.95-26.5 52.15-26.5L52.15-26.5Q56.35-26.5 59.37-25.2 62.4-23.9 64.1-21.4 65.8-18.9 66-15.3L66-15.3Q66.1-14.25 66.1-13 66.1-11.75 66-10.7L66-10.7Q65.8-7.15 64.2-4.63 62.6-2.1 59.57-0.8 56.55 0.5 52.15 0.5ZM52.15-6.55L52.15-6.55Q54-6.55 54.7-7.65 55.4-8.75 55.5-10.95L55.5-10.95Q55.55-11.7 55.55-13 55.55-14.3 55.5-15.05L55.5-15.05Q55.4-17.2 54.7-18.32 54-19.45 52.15-19.45L52.15-19.45Q50.35-19.45 49.65-18.32 48.95-17.2 48.8-15.05L48.8-15.05Q48.75-14.3 48.75-13 48.75-11.7 48.8-10.95L48.8-10.95Q48.95-8.75 49.65-7.65 50.35-6.55 52.15-6.55ZM90.25 0L85.09 0Q81.7 0 79.12-1 76.55-2 75.12-4.28 73.7-6.55 73.7-10.3L73.7-10.3 73.7-18.35 69.75-18.35Q69.2-18.35 68.82-18.73 68.45-19.1 68.45-19.65L68.45-19.65 68.45-24.7Q68.45-25.25 68.82-25.63 69.2-26 69.75-26L69.75-26 73.7-26 73.7-34.2Q73.7-34.75 74.07-35.13 74.45-35.5 75-35.5L75-35.5 82.25-35.5Q82.8-35.5 83.17-35.13 83.55-34.75 83.55-34.2L83.55-34.2 83.55-26 89.84-26Q90.4-26 90.77-25.63 91.15-25.25 91.15-24.7L91.15-24.7 91.15-19.65Q91.15-19.1 90.77-18.73 90.4-18.35 89.84-18.35L89.84-18.35 83.55-18.35 83.55-11.15Q83.55-9.7 84.15-8.88 84.75-8.05 86.05-8.05L86.05-8.05 90.25-8.05Q90.8-8.05 91.17-7.68 91.55-7.3 91.55-6.75L91.55-6.75 91.55-1.3Q91.55-0.75 91.17-0.38 90.8 0 90.25 0L90.25 0ZM108.14 0.5L108.14 0.5Q101.89 0.5 98.22-2.73 94.54-5.95 94.44-12.6L94.44-12.6Q94.44-12.8 94.44-13.13 94.44-13.45 94.44-13.6L94.44-13.6Q94.59-17.75 96.27-20.63 97.94-23.5 100.97-25 103.99-26.5 108.09-26.5L108.09-26.5Q112.69-26.5 115.72-24.68 118.74-22.85 120.24-19.83 121.74-16.8 121.74-13.05L121.74-13.05 121.74-11.65Q121.74-11.15 121.34-10.75 120.94-10.35 120.39-10.35L120.39-10.35 104.99-10.35Q104.99-10.35 104.99-10.25 104.99-10.15 104.99-10.05L104.99-10.05Q104.99-8.85 105.32-7.93 105.64-7 106.34-6.48 107.04-5.95 108.04-5.95L108.04-5.95Q108.69-5.95 109.14-6.15 109.59-6.35 109.94-6.68 110.29-7 110.54-7.3L110.54-7.3Q110.99-7.75 111.27-7.88 111.54-8 112.14-8L112.14-8 119.99-8Q120.44-8 120.77-7.7 121.09-7.4 121.04-6.95L121.04-6.95Q120.99-6.05 120.19-4.78 119.39-3.5 117.82-2.3 116.24-1.1 113.79-0.3 111.34 0.5 108.14 0.5ZM104.99-16.05L104.99-15.95 111.19-15.95 111.19-16.05Q111.19-17.4 110.84-18.35 110.49-19.3 109.79-19.78 109.09-20.25 108.09-20.25L108.09-20.25Q107.09-20.25 106.39-19.78 105.69-19.3 105.34-18.35 104.99-17.4 104.99-16.05L104.99-16.05ZM139.24 0.5L139.24 0.5Q136.24 0.5 133.54-0.28 130.84-1.05 128.72-2.55 126.59-4.05 125.37-6.25 124.14-8.45 124.09-11.35L124.09-11.35Q124.09-11.8 124.39-12.13 124.69-12.45 125.14-12.45L125.14-12.45 133.64-12.45Q134.44-12.45 134.81-12.1 135.19-11.75 135.49-10.95L135.49-10.95Q135.84-9.95 136.37-9.28 136.89-8.6 137.69-8.3 138.49-8 139.54-8L139.54-8Q141.49-8 142.56-9.25 143.64-10.5 143.64-13.2L143.64-13.2 143.64-26.2 128.09-26.2Q127.54-26.2 127.17-26.58 126.79-26.95 126.79-27.5L126.79-27.5 126.79-33.7Q126.79-34.25 127.17-34.63 127.54-35 128.09-35L128.09-35 153.44-35Q153.99-35 154.37-34.63 154.74-34.25 154.74-33.7L154.74-33.7 154.74-12.85Q154.74-8.4 152.72-5.43 150.69-2.45 147.17-0.98 143.64 0.5 139.24 0.5ZM174.49 0.5L174.49 0.5Q169.24 0.5 165.76-0.98 162.29-2.45 160.56-4.83 158.84-7.2 158.74-9.85L158.74-9.85Q158.74-10.3 159.04-10.6 159.34-10.9 159.79-10.9L159.79-10.9 167.74-10.9Q168.44-10.9 168.84-10.68 169.24-10.45 169.69-10.05L169.69-10.05Q170.14-9.5 170.74-9.03 171.34-8.55 172.29-8.28 173.24-8 174.49-8L174.49-8Q176.79-8 178.04-8.63 179.29-9.25 179.29-10.35L179.29-10.35Q179.29-11.2 178.61-11.75 177.94-12.3 176.34-12.75 174.74-13.2 171.99-13.7L171.99-13.7Q168.14-14.35 165.34-15.63 162.54-16.9 161.06-19.07 159.59-21.25 159.59-24.45L159.59-24.45Q159.59-27.7 161.41-30.2 163.24-32.7 166.51-34.1 169.79-35.5 174.14-35.5L174.14-35.5Q177.74-35.5 180.51-34.55 183.29-33.6 185.19-32.08 187.09-30.55 188.09-28.8 189.09-27.05 189.14-25.45L189.14-25.45Q189.14-25 188.81-24.68 188.49-24.35 188.09-24.35L188.09-24.35 179.74-24.35Q179.14-24.35 178.74-24.55 178.34-24.75 177.94-25.2L177.94-25.2Q177.69-25.9 176.69-26.45 175.69-27 174.14-27L174.14-27Q172.44-27 171.54-26.43 170.64-25.85 170.64-24.75L170.64-24.75Q170.64-24 171.19-23.45 171.74-22.9 173.14-22.48 174.54-22.05 177.04-21.55L177.04-21.55Q181.79-20.85 184.71-19.55 187.64-18.25 188.99-16.15 190.34-14.05 190.34-10.9L190.34-10.9Q190.34-7.35 188.29-4.8 186.24-2.25 182.66-0.88 179.09 0.5 174.49 0.5Z" opacity="1" transform="matrix(1,0,0,1,0,0)" fill="#ffffff" class="undefined-text-0" data-fill-palette-color="quaternary" id="text-0"></path></svg></g></svg></g></svg></g></svg></g><g transform="matrix(1,0,0,1,62.37832042127393,0)"><svg viewBox="0 0 88.40180038460922 84.95374179920044" height="84.95374179920044" width="88.40180038460922"><g><svg xmlns="http://www.w3.org/2000/svg" xmlns:xlink="http://www.w3.org/1999/xlink" version="1.1" x="0" y="0" viewBox="2.200014591217041 4.02500057220459 95.6999740600586 91.96725463867188" enable-background="new 0 0 100 100" xml:space="preserve" height="84.95374179920044" width="88.40180038460922" class="icon-icon-0" data-fill-palette-color="quaternary" id="icon-0"><path d="M46.8 12.8c11.7-11.7 30.7-11.7 42.3 0 11.3 11.3 11.7 29.2 1.3 41L90.1 54c1.1 2.4 3.1 5.5 6.2 7 1 0.5 0.8 2-0.3 2.2-3.4 0.5-8.2-0.1-12.7-3.5l-0.1 0.1c-4.5 2.6-9.5 4-14.5 4.1-0.2-4-1.1-7.9-2.6-11.7-1.9-4.6-4.6-8.7-8.1-12.2-3.5-3.5-7.6-6.2-12.2-8.1-2.4-1-4.9-1.7-7.5-2.1C39.2 23.6 42 17.6 46.8 12.8zM53.2 44.9c11.7 11.7 11.7 30.7 0 42.3-9.9 9.9-24.9 11.4-36.3 4.7l-0.1-0.1c-4.5 3.4-9.4 4-12.7 3.5-1.1-0.2-1.4-1.7-0.3-2.2 3.1-1.5 5-4.5 6.2-7l-0.3-0.3c-10.4-11.8-10-29.8 1.3-41C22.5 33.2 41.5 33.2 53.2 44.9zM22.1 66c0-2-1.6-3.6-3.6-3.6s-3.6 1.6-3.6 3.6c0 2 1.6 3.6 3.6 3.6S22.1 68 22.1 66zM35.6 66c0-2-1.6-3.6-3.6-3.6-2 0-3.6 1.6-3.6 3.6 0 2 1.6 3.6 3.6 3.6C34 69.6 35.6 68 35.6 66zM49 66c0-2-1.6-3.6-3.6-3.6-2 0-3.6 1.6-3.6 3.6 0 2 1.6 3.6 3.6 3.6C47.4 69.6 49 68 49 66z" fill="#ffffff" data-fill-palette-color="quaternary"></path></svg></g></svg></g><g></g></svg></g></svg></g></svg></g></svg></g><defs></defs></svg><rect width="342.8515585177538" height="342.8515585177538" fill="none" stroke="none" visibility="hidden"></rect></g></svg></g></svg>